<?xml version="1.0" standalone="no"?>
<!DOCTYPE svg PUBLIC "-//W3C//DTD SVG 20010904//EN"
 "http://www.w3.org/TR/2001/REC-SVG-20010904/DTD/svg10.dtd">
<svg version="1.0" xmlns="http://www.w3.org/2000/svg"
 width="700.000000pt" height="700.000000pt" viewBox="0 0 700.000000 700.000000"
 preserveAspectRatio="xMidYMid meet">
<metadata>
Created by potrace 1.14, written by Peter Selinger 2001-2017
</metadata>
<g transform="translate(0.000000,700.000000) scale(0.100000,-0.100000)"
fill="#000000" stroke="none">
<path d="M1553 6009 l-1 -560 76 -52 c42 -29 94 -64 116 -80 40 -27 65 -45
107 -79 12 -10 26 -18 30 -18 4 0 14 -6 21 -12 7 -7 33 -26 58 -42 25 -17 50
-35 55 -41 6 -6 34 -26 63 -44 30 -19 59 -39 65 -46 7 -6 29 -21 50 -34 21
-13 43 -28 50 -35 6 -6 46 -34 87 -61 41 -28 78 -54 81 -58 4 -5 15 -14 27
-20 11 -7 55 -37 99 -67 43 -31 110 -78 148 -105 39 -27 76 -55 83 -61 6 -7
21 -16 32 -19 11 -3 20 -11 20 -16 0 -5 4 -9 10 -9 5 0 18 -7 27 -14 10 -8
106 -77 213 -152 234 -164 319 -223 408 -286 37 -26 74 -52 82 -58 8 -6 76
-54 150 -106 74 -53 153 -107 175 -122 22 -14 42 -28 45 -32 3 -3 41 -31 85
-61 125 -87 359 -251 368 -258 6 -6 -271 -199 -351 -246 -9 -5 -19 -12 -22
-15 -3 -3 -79 -54 -170 -115 -91 -60 -166 -113 -168 -117 -2 -5 -10 -8 -18 -8
-8 0 -14 -4 -14 -10 0 -5 -4 -10 -10 -10 -7 0 -98 -58 -135 -87 -5 -5 -111
-76 -235 -158 -124 -82 -230 -154 -236 -160 -7 -5 -31 -22 -55 -37 -47 -29
-247 -162 -264 -176 -5 -4 -84 -57 -175 -118 -91 -60 -167 -111 -170 -114 -3
-3 -186 -126 -406 -274 l-402 -268 1 -558 c0 -469 2 -558 13 -553 8 3 14 9 14
14 0 5 7 9 15 9 8 0 15 5 15 10 0 6 6 10 14 10 8 0 16 3 18 8 5 11 95 72 107
72 6 0 11 4 11 9 0 4 24 24 53 42 28 19 129 87 222 150 94 64 206 140 250 170
44 30 82 56 85 59 3 3 34 26 70 50 36 24 85 58 108 74 24 17 51 36 61 41 22
13 85 58 91 65 3 3 12 10 21 15 24 15 113 76 204 139 142 99 275 191 293 201
9 6 19 13 22 16 3 3 41 30 85 60 44 30 82 57 85 60 5 5 130 91 175 119 47 30
587 405 607 422 12 10 24 18 28 18 4 0 16 8 28 17 11 10 64 47 117 83 52 36
147 101 210 145 176 123 573 398 599 415 31 20 62 41 178 122 l96 68 0 379 0
378 -81 54 c-44 30 -85 59 -91 64 -6 6 -27 22 -46 35 -19 13 -37 27 -40 30 -3
4 -12 10 -20 13 -8 4 -69 45 -135 92 -158 111 -413 287 -433 300 -10 6 -68 46
-131 90 -62 44 -124 87 -136 95 -43 28 -257 175 -269 185 -6 6 -19 15 -28 20
-8 6 -28 19 -44 30 -162 112 -512 354 -599 413 -60 42 -111 79 -113 84 -2 4
-7 8 -12 8 -7 0 -251 165 -301 203 -8 7 -23 17 -31 22 -9 6 -38 25 -64 44 -64
44 -242 167 -374 257 -58 40 -110 77 -116 82 -5 5 -20 14 -31 21 -12 6 -28 17
-35 23 -8 7 -21 18 -30 23 -24 15 -228 154 -448 306 -107 74 -216 149 -241
166 l-46 32 0 -560z"/>
</g>
</svg>
